<?xml version="1.0" standalone="no"?>
<!DOCTYPE svg PUBLIC "-//W3C//DTD SVG 20010904//EN"
 "http://www.w3.org/TR/2001/REC-SVG-20010904/DTD/svg10.dtd">
<svg version="1.0" xmlns="http://www.w3.org/2000/svg"
 width="402.000000pt" height="402.000000pt" viewBox="0 0 402.000000 402.000000"
 preserveAspectRatio="xMidYMid meet">
<metadata>
Created by potrace 1.14, written by Peter Selinger 2001-2017
</metadata>
<g transform="translate(0.000000,402.000000) scale(0.100000,-0.100000)"
fill="#000000" stroke="none">
<path d="M3465 3885 c-115 -18 -374 -58 -575 -89 -201 -30 -543 -82 -760 -115
-552 -84 -853 -130 -1390 -211 -256 -39 -527 -80 -602 -92 l-138 -21 0 -96 c0
-86 20 -473 65 -1281 8 -146 21 -400 30 -565 26 -491 32 -585 37 -590 4 -4
269 -28 1253 -114 l420 -36 27 -209 c14 -115 32 -253 38 -307 l12 -99 104 0
104 0 -5 28 c-12 69 -57 553 -53 557 3 3 131 -4 284 -14 153 -11 446 -32 649
-46 204 -14 490 -34 637 -45 147 -11 290 -20 317 -20 l49 0 -4 38 c-4 35 -36
492 -84 1187 -11 165 -32 455 -45 645 -35 478 -105 1492 -105 1513 0 23 -13
22 -265 -18z"/>
</g>
</svg>
